<svg xmlns="http://www.w3.org/2000/svg" width="183.429" height="178.936" viewBox="0 0 183.429 178.936"><defs><clipPath id="a" clipPathUnits="userSpaceOnUse"><path d="M-100.898 104.85H36.674V-29.354h-137.572Z"/></clipPath><clipPath id="b" clipPathUnits="userSpaceOnUse"><path d="M-100.898 33.626H36.674v-134.202h-137.572Z"/></clipPath><clipPath id="c" clipPathUnits="userSpaceOnUse"><path d="M-100.87 37.133H36.702V-97.069H-100.87Z"/></clipPath><clipPath id="d" clipPathUnits="userSpaceOnUse"><path d="M0 134.202h137.572V0H0Z"/></clipPath><clipPath id="e" clipPathUnits="userSpaceOnUse"><path d="M-68.066 49.188H69.506V-85.014H-68.066Z"/></clipPath><clipPath id="f" clipPathUnits="userSpaceOnUse"><path d="M-49.07 82.503H88.502V-51.7H-49.07Z"/></clipPath><clipPath id="g" clipPathUnits="userSpaceOnUse"><path d="M-36.903 82.32h137.572V-51.88H-36.903Z"/></clipPath><clipPath id="h" clipPathUnits="userSpaceOnUse"><path d="M-89.264 70.359H48.308V-63.843H-89.264Z"/></clipPath><clipPath id="i" clipPathUnits="userSpaceOnUse"><path d="M-83.687 72.073H53.885V-62.13H-83.687Z"/></clipPath><clipPath id="j" clipPathUnits="userSpaceOnUse"><path d="M-100.655 89.032H36.917V-45.17h-137.572Z"/></clipPath><clipPath id="k" clipPathUnits="userSpaceOnUse"><path d="M-100.655 87.532H36.917V-46.67h-137.572Z"/></clipPath><clipPath id="l" clipPathUnits="userSpaceOnUse"><path d="M-56.727 94.332H80.845V-39.87H-56.727Z"/></clipPath><clipPath id="m" clipPathUnits="userSpaceOnUse"><path d="M-100.655 89.032H36.917V-45.17h-137.572Z"/></clipPath><clipPath id="n" clipPathUnits="userSpaceOnUse"><path d="M-35.027 97.432h137.572V-36.77H-35.027Z"/></clipPath><clipPath id="o" clipPathUnits="userSpaceOnUse"><path d="M-67.552 105.832H70.02V-28.37H-67.552Z"/></clipPath><clipPath id="p" clipPathUnits="userSpaceOnUse"><path d="M-52.027 89.032H85.545V-45.17H-52.027Z"/></clipPath><clipPath id="q" clipPathUnits="userSpaceOnUse"><path d="M0 134.202h137.572V0H0Z"/></clipPath><clipPath id="r" clipPathUnits="userSpaceOnUse"><path d="M-45.052 105.832H92.52V-28.37H-45.052Z"/></clipPath><clipPath id="s" clipPathUnits="userSpaceOnUse"><path d="M0 134.202h137.572V0H0Z"/></clipPath><clipPath id="t" clipPathUnits="userSpaceOnUse"><path d="M0 134.202h137.572V0H0Z"/></clipPath><clipPath id="u" clipPathUnits="userSpaceOnUse"><path d="M0 134.202h137.572V0H0Z"/></clipPath><clipPath id="v" clipPathUnits="userSpaceOnUse"><path d="M0 134.202h137.572V0H0Z"/></clipPath><clipPath id="w" clipPathUnits="userSpaceOnUse"><path d="M-68.434 49.266H69.138V-84.936H-68.434Z"/></clipPath><clipPath id="x" clipPathUnits="userSpaceOnUse"><path d="M-39.17 82.833H98.402V-51.369H-39.17Z"/></clipPath><clipPath id="y" clipPathUnits="userSpaceOnUse"><path d="M-103.495 81.627H34.077V-52.575h-137.572Z"/></clipPath><clipPath id="z" clipPathUnits="userSpaceOnUse"><path d="M-49.06 82.879H88.512V-51.323H-49.06Z"/></clipPath><clipPath id="A" clipPathUnits="userSpaceOnUse"><path d="M-38.144 81.88H99.428V-52.322H-38.144Z"/></clipPath><clipPath id="B" clipPathUnits="userSpaceOnUse"><path d="M-72.538 33.033H65.034v-134.202H-72.538Z"/></clipPath><clipPath id="C" clipPathUnits="userSpaceOnUse"><path d="M-96.614 82.044H40.958V-52.158H-96.614Z"/></clipPath><clipPath id="D" clipPathUnits="userSpaceOnUse"><path d="M-72.206 31.792H65.366V-102.41H-72.206Z"/></clipPath></defs><path d="M0 0h-62.117a2.3 2.3 0 0 0-2.299 2.299v62.118a2.3 2.3 0 0 0 2.299 2.298H0a2.3 2.3 0 0 0 2.299-2.298V2.299A2.3 2.3 0 0 0 0 0" clip-path="url(#a)" style="fill:#fff;fill-opacity:1;fill-rule:nonzero;stroke:none" transform="matrix(1.33333 0 0 -1.33333 134.53 139.799)"/><path d="M0 0h-62.117a6.814 6.814 0 0 1-6.806-6.807v-62.117a6.814 6.814 0 0 1 6.806-6.806H0a6.814 6.814 0 0 1 6.807 6.806v62.117A6.815 6.815 0 0 1 0 0m0-4.507a2.3 2.3 0 0 0 2.299-2.3v-62.117A2.3 2.3 0 0 0 0-71.223h-62.117a2.3 2.3 0 0 0-2.299 2.299v62.117a2.3 2.3 0 0 0 2.299 2.3z" clip-path="url(#b)" style="fill:#737070;fill-opacity:1;fill-rule:nonzero;stroke:none" transform="matrix(1.33333 0 0 -1.33333 134.53 44.835)"/><path d="M0 0h-62.061a3.33 3.33 0 0 1-3.327-3.328v-62.06a3.33 3.33 0 0 1 3.327-3.328H0a3.33 3.33 0 0 1 3.327 3.328v62.06A3.33 3.33 0 0 1 0 0m0-1a2.327 2.327 0 0 0 2.327-2.328v-62.06A2.327 2.327 0 0 0 0-67.716h-62.061a2.327 2.327 0 0 0-2.327 2.328v62.06A2.327 2.327 0 0 0-62.061-1z" clip-path="url(#c)" style="fill:#1d1d1b;fill-opacity:1;fill-rule:nonzero;stroke:none" transform="matrix(1.33333 0 0 -1.33333 134.494 49.511)"/><path d="M103.112 34.535H36.396v16.844h66.716z" clip-path="url(#d)" style="fill:#b2b2b2;fill-opacity:1;fill-rule:nonzero;stroke:none" transform="matrix(1.33333 0 0 -1.33333 0 178.936)"/><path d="M0 0c1.417 6.721 2.88 13.309 4.536 17.377-.807 2.94-1.648 5.475-2.541 7.316a12 12 0 0 1-.929 1.616c-.699 1.01-1.43 1.587-2.202 1.587-.86 0-1.671-.709-2.442-1.946q-.35-.558-.689-1.257c-2.099-4.329-3.914-12.471-5.666-20.781-1.999-9.476-5.5-32.651-15.871-35.38-2.146-.565-4.304-.905-6.023-1.11q.049-.268.052-.537.31-.008.612-.018c5.574.271 13.035.785 17.028 2.452C-6.87-27.647-1.789-8.481 0 0" clip-path="url(#e)" style="fill:#e54892;fill-opacity:1;fill-rule:nonzero;stroke:none" transform="matrix(1.33333 0 0 -1.33333 90.755 65.584)"/><path d="m0 0 .473.001C.471.004.301.003 0 0" clip-path="url(#f)" style="fill:#e54892;fill-opacity:1;fill-rule:nonzero;stroke:none" transform="matrix(1.33333 0 0 -1.33333 65.426 110.004)"/><path d="m0 0-.754-.036q-.028-.178-.051-.356c4.913.081 11.22.191 12.972.21L2.509-.208C2.424-.091 1.3-.04 0 0" clip-path="url(#g)" style="fill:#92cfc4;fill-opacity:1;fill-rule:nonzero;stroke:none" transform="matrix(1.33333 0 0 -1.33333 49.204 109.761)"/><path d="M0 0c-1.273 4.278-8.643 35.896-10.522 39.771-.872 1.798-1.799 2.866-2.802 2.866s-1.93-1.068-2.802-2.866a21 21 0 0 1-.536-1.223c1.09-3.973 2.119-8.689 3.126-13.465 1.998-9.476 3.917-19.165 6.09-23.655a22.4 22.4 0 0 1 1.869-3.142C-1.771-7.12 3.896-10.438 7.17-12.015l-46.891-.128.023-.033 53.844.132v.241c0 .056.01.11.017.165C10.21-10.91 2.557-8.595 0 0" clip-path="url(#h)" style="fill:#92cfc4;fill-opacity:1;fill-rule:nonzero;stroke:none" transform="matrix(1.33333 0 0 -1.33333 119.018 93.812)"/><path d="M0 0c-.69.98-1.327 2.021-1.869 3.142-2.173 4.49-4.092 14.179-6.09 23.654-1.007 4.777-2.036 9.493-3.126 13.466-1.655-4.068-3.118-10.657-4.536-17.377-1.788-8.481-6.869-27.647-14.135-30.681-3.993-1.667-11.454-2.181-17.028-2.452 1.3-.04 2.424-.091 2.51-.209l9.657.027c.301.003.471.004.473.001l46.892.128C9.473-8.725 3.807-5.406 0 0" clip-path="url(#i)" style="fill:#acbfbb;fill-opacity:1;fill-rule:nonzero;stroke:none" transform="matrix(1.33333 0 0 -1.33333 111.582 96.097)"/><path d="M0 0h-39.128c-3.653 0-4.4-3-4.8-5.3-.489 2.64-1.371 5.3-4.7 5.3h-12.701c-2.4 0-4.299-3.4-4.299-8.4s1.899-8.4 4.299-8.4h12.701c3.329 0 4.211 2.66 4.7 5.3.4-2.3 1.147-5.3 4.8-5.3H0c2.4 0 4.3 3.4 4.3 8.4S2.4 0 0 0" clip-path="url(#j)" style="fill:#dadada;fill-opacity:1;fill-rule:nonzero;stroke:none" transform="matrix(1.33333 0 0 -1.33333 134.207 118.71)"/><path d="M0 0h-39.128c-2.439 0-3.908-1.07-4.81-2.386C-44.832-1.071-46.268 0-48.628 0h-12.701c-3.415 0-5.799-4.071-5.799-9.9s2.384-9.9 5.799-9.9h12.701c2.36 0 3.796 1.071 4.69 2.387.902-1.316 2.371-2.387 4.81-2.387H0c3.415 0 5.8 4.071 5.8 9.9S3.415 0 0 0m0-1.5c2.4 0 4.3-3.4 4.3-8.4S2.4-18.3 0-18.3h-39.128c-3.653 0-4.4 3-4.8 5.3-.489-2.64-1.371-5.3-4.7-5.3h-12.701c-2.4 0-4.299 3.4-4.299 8.4s1.899 8.4 4.299 8.4h12.701c3.329 0 4.211-2.66 4.7-5.3.4 2.3 1.147 5.3 4.8 5.3H0" clip-path="url(#k)" style="fill:#1d1d1b;fill-opacity:1;fill-rule:nonzero;stroke:none" transform="matrix(1.33333 0 0 -1.33333 134.207 116.71)"/><path d="M0 0c-.446 2.405-1.224 4.82-3.875 5.232v-16.664C-1.224-11.02-.446-8.605 0-6.2c.285-1.642.754-3.635 2.325-4.645v15.49C.754 3.636.285 1.642 0 0" clip-path="url(#l)" style="fill:#f8b46b;fill-opacity:1;fill-rule:nonzero;stroke:none" transform="matrix(1.33333 0 0 -1.33333 75.636 125.776)"/><path d="M0 0h-20.003v-16.8H0c2.4 0 4.3 3.4 4.3 8.4S2.4 0 0 0" clip-path="url(#m)" style="fill:#f8b46b;fill-opacity:1;fill-rule:nonzero;stroke:none" transform="matrix(1.33333 0 0 -1.33333 134.207 118.71)"/><path d="M0 0c0-4.736 1.706-8.031 3.925-8.367V8.367C1.706 8.032 0 4.736 0 0" clip-path="url(#n)" style="fill:#fbee79;fill-opacity:1;fill-rule:nonzero;stroke:none" transform="matrix(1.33333 0 0 -1.33333 46.703 129.91)"/><path d="M0 0v16.8h-6.025c-1.045 0-1.846-.251-2.475-.655V.655C-7.871.251-7.07 0-6.025 0Z" clip-path="url(#o)" style="fill:#fbee79;fill-opacity:1;fill-rule:nonzero;stroke:none" transform="matrix(1.33333 0 0 -1.33333 90.07 141.11)"/><path d="M0 0h-6.975v-16.8H0c.296 0 .566.028.825.069V-.068C.566-.028.296 0 0 0" clip-path="url(#p)" style="fill:#fbee79;fill-opacity:1;fill-rule:nonzero;stroke:none" transform="matrix(1.33333 0 0 -1.33333 69.37 118.71)"/><path d="M72.352 28.37h8.3v16.8h-8.3z" clip-path="url(#q)" style="fill:#fbee79;fill-opacity:1;fill-rule:nonzero;stroke:none" transform="matrix(1.33333 0 0 -1.33333 0 178.936)"/><path d="M0 0v16.8h-5.726c-.126 0-.251-.014-.374-.033V.033C-5.977.015-5.852 0-5.726 0Z" clip-path="url(#r)" style="fill:#f8b46b;fill-opacity:1;fill-rule:nonzero;stroke:none" transform="matrix(1.33333 0 0 -1.33333 60.07 141.11)"/><path d="M67.552 28.37h4.8v16.8h-4.8z" clip-path="url(#s)" style="fill:#f8b46b;fill-opacity:1;fill-rule:nonzero;stroke:none" transform="matrix(1.33333 0 0 -1.33333 0 178.936)"/><path d="M63.803 27.93h-1.205v17.945h1.205z" clip-path="url(#t)" style="fill:#1d1d1b;fill-opacity:1;fill-rule:nonzero;stroke:none" transform="matrix(1.33333 0 0 -1.33333 0 178.936)"/><path d="M70.412 27.93h-1.206v17.945h1.206z" clip-path="url(#u)" style="fill:#1d1d1b;fill-opacity:1;fill-rule:nonzero;stroke:none" transform="matrix(1.33333 0 0 -1.33333 0 178.936)"/><path d="M77.128 27.709h-1.206v17.945h1.206z" clip-path="url(#v)" style="fill:#1d1d1b;fill-opacity:1;fill-rule:nonzero;stroke:none" transform="matrix(1.33333 0 0 -1.33333 0 178.936)"/><path d="M0 0c1.261 5.982 2.612 12.113 4.104 16.233-.099.378-.198.757-.298 1.123l-.034.119C2.111 13.334.635 6.653-.735.155c-.611-2.896-2.32-10.383-4.996-17.325-2.855-7.405-5.855-11.808-8.916-13.086-3.496-1.459-9.676-2.035-15.643-2.358-.188-.03-.372-.061-.563-.089 1.211-.046 1.697-.093 1.93-.184l5.181.014c3.71.383 7.091.967 9.384 1.924C-6.184-27.536-.963-4.569 0 0" clip-path="url(#w)" style="fill:#1e1f1d;fill-opacity:1;fill-rule:nonzero;stroke:none" transform="matrix(1.33333 0 0 -1.33333 91.245 65.688)"/><path d="M0 0c-.391.083-1.942.127-2.89.155l-.359.01-.005.359c-.002.114-.018.212-.031.313l-.06-.003-.047-.303q-.03-.184-.052-.368l-.05-.426L.49-.196c3.801.064 8.023.135 9.4.15L.053-.073Z" clip-path="url(#x)" style="fill:#1e1f1d;fill-opacity:1;fill-rule:nonzero;stroke:none" transform="matrix(1.33333 0 0 -1.33333 52.226 110.444)"/><path d="M0 0c-5.061.931-11.576 3.661-13.871 11.375-.412 1.386-1.458 5.615-2.781 10.969-2.734 11.062-6.479 26.211-7.763 28.859-1.004 2.071-2.031 3.078-3.14 3.078s-2.136-1.007-3.14-3.078q-.06-.125-.124-.263c.095-.333.192-.671.288-1.024l.033-.125c.176.426.333.785.479 1.084.854 1.761 1.683 2.654 2.464 2.654.782 0 1.61-.893 2.464-2.654 1.25-2.577 4.984-17.682 7.71-28.711 1.325-5.364 2.373-9.6 2.79-11.003C-12.419 3.859-6.668.828-1.693-.404l-5.188-.013 1.457-.701-48.72-.132.024-.033L.291-1.15v.615c0 .025.004.048.014.119l.044.352z" clip-path="url(#y)" style="fill:#1e1f1d;fill-opacity:1;fill-rule:nonzero;stroke:none" transform="matrix(1.33333 0 0 -1.33333 137.993 108.837)"/><path d="m0 0 .292.001L.29.003z" clip-path="url(#z)" style="fill:#1e1f1d;fill-opacity:1;fill-rule:nonzero;stroke:none" transform="matrix(1.33333 0 0 -1.33333 65.413 110.505)"/><path d="M0 0c1.501.233 2.916.52 4.213.861 9.564 2.516 13.277 21.26 15.496 32.458.234 1.183.448 2.263.647 3.207 1.785 8.461 3.559 16.41 5.637 20.696.214.441.44.852.67 1.222 1.381 2.216 2.625 2.354 4.017.344.309-.446.611-.973.899-1.566.806-1.661 1.618-3.997 2.483-7.133l.047.122c.153.375.292.699.423.982-.784 2.731-1.532 4.82-2.277 6.357a12.6 12.6 0 0 1-.958 1.665c-.815 1.177-1.636 1.749-2.511 1.749-.967 0-1.87-.694-2.761-2.123a14 14 0 0 1-.708-1.291c-2.115-4.363-3.901-12.361-5.696-20.869-.2-.947-.414-2.03-.649-3.216-2.041-10.303-5.841-29.481-14.95-31.878C2.233 1.116.224.747-1.95.488L-2.349.44l.075-.395c.009-.049.008-.108.015-.16l.246.013Q-1.014-.054 0 0" clip-path="url(#A)" style="fill:#1e1f1d;fill-opacity:1;fill-rule:nonzero;stroke:none" transform="matrix(1.33333 0 0 -1.33333 50.859 109.174)"/><path d="M0 0c1.024-3.896 1.988-8.369 2.822-12.321l.508-2.417c1.853-8.831 3.603-17.174 5.611-21.323a23 23 0 0 1 1.9-3.195c3.384-4.804 8.22-7.97 11.492-9.714l-50.18-.136c-.205-.021-.406-.044-.613-.064l2.406.039c2.042.032 2.798.044 3.11.005l47.02.115-.017.008c-3.072 1.48-8.793 4.769-12.603 10.179a22 22 0 0 0-1.839 3.09c-1.968 4.067-3.709 12.365-5.552 21.151l-.508 2.417C2.649-7.863 1.588-2.936.459 1.196l-.047-.115C.273.741.136.375 0 0" clip-path="url(#B)" style="fill:#878787;fill-opacity:1;fill-rule:nonzero;stroke:none" transform="matrix(1.33333 0 0 -1.33333 96.718 44.044)"/><path d="m0 0-47.02-.115c-.312.038-1.068.027-3.11-.006l-2.406-.039c.207.02.409.043.614.065l-5.181-.014c-.233.09-.719.138-1.93.184.191.028.375.059.563.089q-1.014-.056-2.012-.102l-.247-.014c.013-.101.028-.199.03-.313l.006-.359.359-.01c.948-.028 2.499-.072 2.89-.155l.052-.073 9.838.027.29.003.001-.002 48.72.132z" clip-path="url(#C)" style="fill:#1e1f1d;fill-opacity:1;fill-rule:nonzero;stroke:none" transform="matrix(1.33333 0 0 -1.33333 128.819 109.392)"/><path d="m0 0 .033-.119c.101-.365.2-.745.299-1.123A29 29 0 0 0 .791-.045L.758.08C.661.433.565.771.47 1.104.339.821.2.497.047.123z" clip-path="url(#D)" style="fill:#1e1f1d;fill-opacity:1;fill-rule:nonzero;stroke:none" transform="matrix(1.33333 0 0 -1.33333 96.275 42.389)"/></svg>